<?xml version="1.0" encoding="utf-8"?>
<!DOCTYPE svg PUBLIC "-//W3C//DTD SVG 1.0//EN" "http://www.w3.org/TR/2001/REC-SVG-20010904/DTD/svg10.dtd">
<svg version="1.0" xmlns="http://www.w3.org/2000/svg" xmlns:xlink="http://www.w3.org/1999/xlink" width="80px" height="50px" viewBox="0 0 80 50">
<path fill="none" d="M75,25"/>
<path fill="none" d="M70,28.125"/>
<path fill="none" d="M65,31.25"/>
<path fill="none" d="M60,34.375"/>
<path fill="none" d="M55,37.5"/>
<path fill="none" d="M50,40.625"/>
<path fill="none" d="M45,43.75"/>
<path fill="none" d="M40,46.875"/>
<path fill="none" d="M70,21.875"/>
<path fill="none" d="M65,25"/>
<path fill="none" d="M60,28.125"/>
<path fill="none" d="M55,31.25"/>
<path fill="none" d="M50,34.375"/>
<path fill="none" d="M45,37.5"/>
<path fill="none" d="M40,40.625"/>
<path fill="none" d="M35,43.75"/>
<path fill="none" d="M65,18.75"/>
<path fill="none" d="M60,21.875"/>
<path fill="none" d="M55,25"/>
<path fill="none" d="M50,28.125"/>
<path fill="none" d="M45,31.25"/>
<path fill="none" d="M40,34.375"/>
<path fill="none" d="M35,37.5"/>
<path fill="none" d="M30,40.625"/>
<path fill="none" d="M60,15.625"/>
<path fill="none" d="M55,18.75"/>
<path fill="none" d="M50,21.875"/>
<path fill="none" d="M45,25"/>
<path fill="none" d="M40,28.125"/>
<path fill="none" d="M35,31.25"/>
<path fill="none" d="M30,34.375"/>
<path fill="none" d="M25,37.5"/>
<path fill="none" d="M55,12.5"/>
<path fill="none" d="M50,15.625"/>
<path fill="none" d="M45,18.75"/>
<path fill="none" d="M40,21.875"/>
<path fill="none" d="M35,25"/>
<path fill="none" d="M30,28.125"/>
<path fill="none" d="M25,31.25"/>
<path fill="none" d="M20,34.375"/>
<path fill="none" d="M50,9.375"/>
<path fill="none" d="M45,12.5"/>
<path fill="none" d="M40,15.625"/>
<path fill="none" d="M35,18.75"/>
<path fill="none" d="M30,21.875"/>
<path fill="none" d="M25,25"/>
<path fill="none" d="M20,28.125"/>
<path fill="none" d="M15,31.25"/>
<path fill="none" d="M45,6.25"/>
<path fill="none" d="M40,9.375"/>
<path fill="none" d="M35,12.5"/>
<path fill="none" d="M30,15.625"/>
<path fill="none" d="M25,18.75"/>
<path fill="none" d="M20,21.875"/>
<path fill="none" d="M15,25"/>
<path fill="none" d="M10,28.125"/>
<path fill="none" d="M40,3.125"/>
<path fill="none" d="M35,6.25"/>
<path fill="none" d="M30,9.375"/>
<path fill="none" d="M25,12.5"/>
<path fill="none" d="M20,15.625"/>
<path fill="none" d="M15,18.75"/>
<path fill="none" d="M10,21.875"/>
<path fill="none" d="M5,25"/>
</svg>